# AST/ASF file generated using VICON BodyLanguage
# -----------------------------------------------
:version 1.10
:name VICON
:units
  mass 1.0
  length 0.45
  angle deg
:documentation
   .ast/.asf automatically generated from VICON data using
   VICON BodyBuilder and BodyLanguage model FoxedUp or BRILLIANT.MOD
:root
   order TX TY TZ RX RY RZ
   axis XYZ
   position 0 0 0  
   orientation 0 0 0 
:bonedata
  begin
     id 1 
     name lhipjoint
     direction 0.710188 -0.616876 0.339259 
     length 2.5669 
     axis 0 0 0  XYZ
  end
  begin
     id 2 
     name lfemur
     direction 0.34202 -0.939693 0  
     length 7.12796  
     axis 0 0 20  XYZ
    dof rx ry rz
    limits (-160.0 20.0)
           (-70.0 70.0)
           (-60.0 70.0)
  end
  begin
     id 3 
     name ltibia
     direction 0.34202 -0.939693 0   
     length 7.58108   
     axis 0 0 20   XYZ
    dof rx
    limits (-10.0 170.0)
  end
  begin
     id 4 
     name lfoot
     direction 0.0669471 -0.183936 0.980656   
     length 2.17365   
     axis -90 7.62852e-016 20   XYZ
    dof rx rz
    limits (-45.0 90.0)
           (-70.0 20.0)
  end
  begin
     id 5 
     name ltoes
     direction 1.53508e-011 -4.21705e-011 1   
     length 1.09427   
     axis -90 7.62852e-016 20   XYZ
    dof rx
    limits (-90.0 20.0)
  end
  begin
     id 6 
     name rhipjoint
     direction -0.700191 -0.625589 0.34405   
     length 2.53115  
     axis 0 0 0  XYZ 
  end
  begin
     id 7 
     name rfemur
     direction -0.34202 -0.939693 0   
     length 7.33006   
     axis 0 0 -20   XYZ
    dof rx ry rz
    limits (-160.0 20.0)
           (-70.0 70.0)
           (-70.0 60.0)
  end
  begin
     id 8 
     name rtibia
     direction -0.34202 -0.939693 0   
     length 7.64926   
     axis 0 0 -20   XYZ
    dof rx
    limits (-10.0 170.0)
 end
 begin
     id 9 
     name rfoot
     direction -0.0688927 -0.189281 0.979503   
     length 2.20493  
     axis -90 -7.62852e-016 -20   XYZ
    dof rx rz
    limits (-45.0 90.0)
           (-20.0 70.0)
  end
  begin
     id 10 
     name rtoes
     direction -1.53567e-011 -4.21933e-011 1   
     length 1.10919   
     axis -90 -7.62852e-016 -20   XYZ
    dof rx
    limits (-90.0 20.0)
  end
  begin
     id 11 
     name lowerback
     direction -0.0167868 0.989873 -0.140959   
     length 2.14596   
     axis 0 0 0   XYZ
    dof rx ry rz
    limits (-20.0 45.0)
           (-30.0 30.0)
           (-30.0 30.0)
  end
  begin
     id 12 
     name upperback
     direction 0.0129109 0.998033 0.0613525   
     length 2.10457   
     axis 0 0 0   XYZ
    dof rx ry rz
    limits (-20.0 45.0)
           (-30.0 30.0)
           (-30.0 30.0)
  end
  begin
     id 13 
     name thorax
     direction 0.0177047 0.991119 0.131797   
     length 2.17652   
     axis 0 0 0   XYZ
    dof rx ry rz
    limits (-20.0 45.0)
           (-30.0 30.0)
           (-30.0 30.0)
  end
  begin
     id 14 
     name lowerneck
     direction -0.0336893 0.997548 0.0613464   
     length 1.8912   
     axis 0 0 0   XYZ
    dof rx ry rz
    limits (-20.0 45.0)
           (-30.0 30.0)
           (-30.0 30.0)
  end
  begin
     id 15 
     name upperneck
     direction 0.0435909 0.997179 -0.0611028   
     length 1.8829   
     axis 0 0 0   XYZ
    dof rx ry rz
    limits (-20.0 45.0)
           (-30.0 30.0)
           (-30.0 30.0)
  end
  begin
     id 16
     name head
     direction 0.0175076 0.999444 -0.0283782  
     length 1.93197  
     axis 0 0 0   XYZ
    dof rx ry rz
    limits (-20.0 45.0)
           (-30.0 30.0)
           (-30.0 30.0)
  end
  begin
     id 17 
     name lclavicle
     direction 0.919164 0.389875 0.0559876  
     length 3.60004  
     axis 0 0 0   XYZ
    dof ry rz
    limits (-20.0 10.0)
           (0.0 20.0)
  end
  begin
     id 18 
     name lhumerus
     direction 1 -4.48958e-011 6.89191e-027   
     length 5.43301   
     axis 180 -30 -90   XYZ
    dof rx ry rz
    limits (-60.0 90.0)
           (-90.0 90.0)
           (-90.0 90.0)
  end
  begin
     id 19
     name lradius
     direction 1 -4.4897e-011 3.24727e-027   
     length 3.15936   
     axis 180 -30 -90   XYZ
    dof rx
    limits (-10.0 170.0)
  end
  begin
     id 20
     name lwrist
     direction 1 -4.4897e-011 9.00228e-027   
     length 1.57968   
     axis -6.29373e-015 90 90   XYZ
    dof ry
    limits (-180.0 0.0)
 end
  begin
     id 21 
     name lhand
     direction 1 -4.48968e-011 1.80042e-026   
     length 0.712827   
     axis -1.14882e-014 90 90   XYZ
    dof rx rz
    limits (-90.0 90.0)
           (-45.0 45.0)
  end
  begin
     id 22 
     name lfingers
     direction 1 -4.49019e-011 3.60267e-026   
     length 0.574699   
     axis -2.29769e-014 90 90   XYZ
    dof rx
    limits (0.0 90.0)
  end
  begin
     id 23
     name lthumb
     direction 0.707107 -6.3498e-011 0.707107   
     length 0.825157   
     axis -90 45 5.37419e-014   XYZ
    dof rx rz
    limits (-45.0 45.0)
           (-45.0 45.0)
  end
  begin
     id 24 
     name rclavicle
     direction -0.890334 0.455305 -0.00132111   
     length 3.51494  
     axis 0 0 0   XYZ 
    dof ry rz
    limits (-10.0 20.0)
           (-20.0 0.0)
  end
  begin
     id 25 
     name rhumerus
     direction -1 -4.48967e-011 5.07175e-028  
     length 5.34194   
     axis 180 30 90   XYZ
    dof rx ry rz
    limits (-90.0 60.0)
           (-90.0 90.0)
           (-90.0 90.0)
  end
  begin
     id 26 
     name rradius
     direction -1 -4.48955e-011 3.30467e-027   
     length 3.19351   
     axis 180 30 90   XYZ
    dof rx
    limits (-10.0 170.0)
  end
  begin
     id 27 
     name rwrist
     direction -1 -4.48968e-011 9.00208e-027   
     length 1.59676   
     axis -6.29373e-015 -90 -90   XYZ
    dof ry
    limits (-180.0 0.0)
  end
  begin
     id 28
     name rhand
     direction -1 -4.49e-011 1.80099e-026   
     length 0.743862   
     axis -1.14882e-014 -90 -90   XYZ
    dof rx rz
    limits (-90.0 90.0)
           (-45.0 45.0)
  end
  begin
     id 29
     name rfingers
     direction -1 -4.49009e-011 3.6023e-026   
     length 0.599721   
     axis -2.29769e-014 -90 -90   XYZ
    dof rx
    limits (0.0 90.0)
  end
  begin
     id 30
     name rthumb
     direction -0.707107 -6.35025e-011 0.707107   
     length 0.861083   
     axis -90 -45 -5.37419e-014   XYZ
    dof rx rz
    limits (-45.0 45.0)
           (-45.0 45.0)
  end
:hierarchy
  begin
    root lhipjoint rhipjoint lowerback
    lhipjoint lfemur
    lfemur ltibia
    ltibia lfoot
    lfoot ltoes
    rhipjoint rfemur
    rfemur rtibia
    rtibia rfoot
    rfoot rtoes
    lowerback upperback
    upperback thorax
    thorax lowerneck lclavicle rclavicle
    lowerneck upperneck
    upperneck head
    lclavicle lhumerus
    lhumerus lradius
    lradius lwrist
    lwrist lhand lthumb
    lhand lfingers
    rclavicle rhumerus
    rhumerus rradius
    rradius rwrist
    rwrist rhand rthumb
    rhand rfingers
  end

#!OML:ASF H:\Martial Arts Walks\Project 1\Capture day 1\Session 1\male.ASF
:FULLY-SPECIFIED
:DEGREES
945
root -2.34049 13.7567 25.9866 4.77179 -30.6738 -16.3748
lowerback 14.412 5.51331 8.1895
upperback -0.205863 9.09238 5.18471
thorax -7.88352 4.16117 -0.868331
lowerneck -2.64452 0.980467 -2.56425
upperneck 6.782 1.15183 4.28902
head 2.58098 0.63536 1.86451
rclavicle 5.47093e-014 3.57812e-014
rhumerus -41.7126 17.8951 -77.9874
rradius 52.2587
rwrist 15.8575
rhand -5.64633 -39.4283
rfingers 7.12502
rthumb 20.1723 -68.401
lclavicle 5.47093e-014 3.57812e-014
lhumerus -22.7431 -11.6154 81.7943
lradius 39.5539
lwrist -3.80453
lhand -27.811 23.3479
lfingers 7.12502
lthumb -1.2034 53.3242
rfemur 9.29929 -4.53007 11.031
rtibia 42.7756
rfoot -27.0282 -24.4924
rtoes -25.7634
lfemur -55.1122 31.9569 -0.0354505
ltibia 68.7192
lfoot -5.10058 -3.62523
ltoes 9.99585
946
root -2.33814 13.7619 26.033 4.92949 -30.8198 -16.3729
lowerback 14.2225 5.54112 8.17517
upperback -0.252584 9.10671 5.15108
thorax -7.823 4.17145 -0.88045
lowerneck -2.57213 1.01471 -2.52112
upperneck 6.82927 1.19355 4.27648
head 2.58174 0.65622 1.85353
rclavicle -2.71093e-014 -8.77634e-014
rhumerus -41.6048 18.1677 -78.2476
rradius 52.1168
rwrist 15.7633
rhand -5.83798 -39.5607
rfingers 7.12502
rthumb 19.9881 -68.5527
lclavicle -2.71093e-014 -8.77634e-014
lhumerus -22.4429 -11.6402 81.7197
lradius 39.4076
lwrist -3.9438
lhand -27.88 23.2732
lfingers 7.12502
lthumb -1.26999 53.2491
rfemur 9.56884 -4.29637 10.9659
rtibia 42.1125
rfoot -26.7961 -24.5214
rtoes -26.0894
lfemur -55.1208 32.1277 -0.0858558
ltibia 68.9129
lfoot -5.38354 -3.57132
ltoes 10.1049
947
root -2.33427 13.7707 26.0703 5.27528 -30.8612 -16.7364
lowerback 14.1261 5.5084 8.47276
upperback -0.3127 9.1088 5.19854
thorax -7.79793 4.16098 -0.980491
lowerneck -2.54061 1.02545 -2.41073
upperneck 6.83141 1.21147 4.12965
head 2.57585 0.663262 1.78547
rclavicle 7.03573e-014 -8.84592e-015
rhumerus -41.4061 18.3559 -78.4745
rradius 51.9592
rwrist 15.703
rhand -5.88755 -39.7593
rfingers 7.12502
rthumb 19.9404 -68.7562
lclavicle 7.03573e-014 -8.84592e-015
lhumerus -22.1167 -11.5575 81.6098
lradius 39.2235
lwrist -4.28321
lhand -27.6186 23.8063
lfingers 7.12502
lthumb -1.01755 53.7836
rfemur 9.8107 -4.19406 11.2541
rtibia 41.4268
rfoot -26.4863 -24.5295
rtoes -26.4708
lfemur -55.2196 32.265 0.180987
ltibia 69.0968
lfoot -5.64642 -3.56663
ltoes 10.1065
948
root -2.33116 13.7718 26.105 5.46909 -30.9224 -16.9677
lowerback 14.1153 5.5143 8.69639
upperback -0.372189 9.15881 5.21783
thorax -7.82368 4.17334 -1.08893
lowerneck -2.44375 1.09576 -2.47024
upperneck 6.84801 1.29594 4.28805
head 2.56031 0.707478 1.84942
rclavicle -1.18805e-013 -6.7885e-014
rhumerus -41.3182 18.5395 -78.6806
rradius 51.8387
rwrist 15.5394
rhand -6.03467 -39.9582
rfingers 7.12502
rthumb 19.799 -68.9698
lclavicle -1.18805e-013 -6.7885e-014
lhumerus -21.8546 -11.5121 81.5673
lradius 39.0369
lwrist -4.74028
lhand -27.5502 23.6852
lfingers 7.12502
lthumb -0.951509 53.6629
rfemur 10.1295 -3.96363 11.4651
rtibia 40.7554
rfoot -26.1955 -24.6033
rtoes -26.8183
lfemur -55.2449 32.3908 0.384952
ltibia 69.3055
lfoot -5.8829 -3.59866
ltoes 10.2514
949
root -2.33008 13.7717 26.1424 5.69249 -30.9174 -17.2295
lowerback 13.9383 5.4849 8.97197
upperback -0.354252 9.13908 5.24062
thorax -7.66774 4.16128 -1.18568
lowerneck -2.46178 1.11559 -2.39953
upperneck 6.84524 1.3231 4.23134
head 2.56175 0.721291 1.81904
rclavicle 6.7534e-014 -1.88845e-015
rhumerus -41.1434 18.7229 -78.8751
rradius 51.8101
rwrist 15.4302
rhand -6.14595 -40.2649
rfingers 7.12502
rthumb 19.6921 -69.2875
lclavicle 6.7534e-014 -1.88845e-015
lhumerus -21.5248 -11.3574 81.4846
lradius 38.8163
lwrist -5.32028
lhand -27.2257 23.94
lfingers 7.12502
lthumb -0.638034 53.9188
rfemur 10.4824 -3.85066 11.6604
rtibia 40.0987
rfoot -25.945 -24.6332
rtoes -27.1509
lfemur -55.3168 32.4922 0.587151
ltibia 69.5311
lfoot -6.17325 -3.63804
ltoes 10.172
950
root -2.32939 13.7691 26.1728 5.78526 -30.907 -17.4022
lowerback 13.9503 5.45324 9.09851
upperback -0.324937 9.1176 5.28151
thorax -7.63219 4.14827 -1.2052
lowerneck -2.60938 1.16145 -2.32463
upperneck 6.8946 1.38675 4.1553
head 2.6033 0.754283 1.78546
rclavicle 6.37695e-014 4.40308e-014
rhumerus -40.8688 18.9218 -79.0215
rradius 51.7071
rwrist 15.2766
rhand -6.29436 -40.44
rfingers 7.12502
rthumb 19.5494 -69.4771
lclavicle 6.37695e-014 4.40308e-014
lhumerus -21.1292 -11.164 81.4183
lradius 38.4907
lwrist -5.91572
lhand -27.2442 23.8051
lfingers 7.12502
lthumb -0.655944 53.7839
rfemur 10.8678 -3.65598 11.8314
rtibia 39.5088
rfoot -25.7914 -24.6572
rtoes -27.3233
lfemur -55.3431 32.5668 0.732206
ltibia 69.7685
lfoot -6.39645 -3.67706
ltoes 10.0687
951
root -2.32866 13.7643 26.1982 6.01028 -30.81 -17.747
lowerback 13.9967 5.40992 9.35517
upperback -0.375334 9.11991 5.37868
thorax -7.69251 4.13545 -1.2462
lowerneck -2.68909 1.16147 -2.24146
upperneck 6.97978 1.39146 4.00486
head 2.64665 0.755319 1.72393
rclavicle 1.34428e-014 1.13307e-014
rhumerus -40.7846 19.1512 -79.1652
rradius 51.7064
rwrist 15.0447
rhand -6.45833 -40.7704
rfingers 7.12502
rthumb 19.3917 -69.8235
lclavicle 1.34428e-014 1.13307e-014
lhumerus -20.9221 -10.9113 81.418
lradius 38.2542
lwrist -6.62435
lhand -26.9952 23.8326
lfingers 7.12502
lthumb -0.415474 53.812
rfemur 11.1822 -3.58171 12.1673
rtibia 38.9426
rfoot -25.588 -24.6887
rtoes -27.5639
lfemur -55.5318 32.6603 0.965172
ltibia 70.0134
lfoot -6.56184 -3.75161
ltoes 10.1283
952
root -2.32917 13.7566 26.2289 6.23872 -30.7155 -18.0826
lowerback 13.8876 5.40316 9.70032
upperback -0.411394 9.15963 5.45583
thorax -7.62952 4.14419 -1.34272
lowerneck -2.49974 1.15072 -2.31775
upperneck 6.85223 1.37851 4.05252
head 2.56918 0.746091 1.74782
rclavicle 3.13459e-014 3.06128e-014
rhumerus -40.8944 19.282 -79.2745
rradius 51.9404
rwrist 14.7998
rhand -6.54204 -41.0777
rfingers 7.12502
rthumb 19.3112 -70.1388
lclavicle 3.13459e-014 3.06128e-014
lhumerus -20.6147 -10.8703 81.4916
lradius 37.8092
lwrist -7.24061
lhand -26.8864 24.0101
lfingers 7.12502
lthumb -0.310363 53.9896
rfemur 11.4987 -3.4954 12.4827
rtibia 38.4164
rfoot -25.3793 -24.76
rtoes -27.8802
lfemur -55.7421 32.8032 1.1731
ltibia 70.2898
lfoot -6.75854 -3.85092
ltoes 10.0794
953
root -2.32971 13.7519 26.2538 6.42295 -30.6347 -18.4351
lowerback 13.8484 5.36053 10.0051
upperback -0.373414 9.14608 5.54677
thorax -7.53734 4.1318 -1.39792
lowerneck -2.3923 1.17987 -2.39094
upperneck 6.65702 1.42311 4.08127
head 2.48247 0.765588 1.76661
rclavicle -1.19948e-013 -4.59193e-014
rhumerus -40.7879 19.452 -79.3816
rradius 52.0808
rwrist 14.6222
rhand -6.63358 -41.3515
rfingers 7.12502
rthumb 19.2232 -70.4214
lclavicle -1.19948e-013 -4.59193e-014
lhumerus -20.2861 -10.6571 81.491
lradius 37.4285
lwrist -7.86691
lhand -26.721 24.4535
lfingers 7.12502
lthumb -0.150663 54.4332
rfemur 11.8147 -3.36192 12.8484
rtibia 37.9384
rfoot -25.2199 -24.8318
rtoes -28.13
lfemur -55.868 32.9145 1.44594
ltibia 70.5459
lfoot -6.91923 -3.92157
ltoes 10.1836
954
root -2.33202 13.7455 26.2812 6.5863 -30.5666 -18.6246
lowerback 13.7409 5.32499 10.1511
upperback -0.353578 9.10631 5.59346
thorax -7.44457 4.11314 -1.40555
lowerneck -2.4532 1.18311 -2.37946
upperneck 6.61012 1.43195 4.03949
head 2.4778 0.769519 1.75124
rclavicle -2.37796e-014 -1.28216e-014
rhumerus -40.6807 19.6245 -79.512
rradius 52.1975
rwrist 14.4805
rhand -6.74752 -41.5541
rfingers 7.12502
rthumb 19.1136 -70.635
lclavicle -2.37796e-014 -1.28216e-014
lhumerus -19.9901 -10.4383 81.4684
lradius 37.0479
lwrist -8.46888
lhand -26.9126 24.2958
lfingers 7.12502
lthumb -0.335629 54.2753
rfemur 12.0681 -3.26891 13.0324
rtibia 37.5091
rfoot -25.0819 -24.8945
rtoes -28.4856
lfemur -56.0525 33.0538 1.52519
ltibia 70.8074
lfoot -7.12333 -3.98166
ltoes 10.2168
955
root -2.33404 13.7338 26.3064 6.66128 -30.5114 -18.7298
lowerback 13.6946 5.33582 10.292
upperback -0.372211 9.13896 5.61123
thorax -7.41832 4.12457 -1.46176
lowerneck -2.39847 1.16516 -2.42028
upperneck 6.58841 1.40888 4.0512
head 2.46126 0.756789 1.76055
rclavicle -1.42255e-013 -7.66315e-014
rhumerus -40.6938 19.7271 -79.6138
rradius 52.3072
rwrist 14.3405
rhand -6.79669 -41.7851
rfingers 7.12502
rthumb 19.0663 -70.8706
lclavicle -1.42255e-013 -7.66315e-014
lhumerus -19.8662 -10.3549 81.5312
lradius 36.7868
lwrist -9.06886
lhand -26.8551 24.3263
lfingers 7.12502
lthumb -0.280146 54.3059
rfemur 12.3319 -3.20391 13.1096
rtibia 37.1427
rfoot -24.8748 -25.0205
rtoes -28.9164
lfemur -56.1958 33.1841 1.55139
ltibia 71.0549
lfoot -7.32664 -4.06324
ltoes 10.2076
956
root -2.3353 13.7243 26.3247 6.69812 -30.4739 -18.8132
lowerback 13.7535 5.26574 10.2888
upperback -0.340948 9.05223 5.63931
thorax -7.43015 4.08271 -1.42116
lowerneck -2.57133 1.21481 -2.32823
upperneck 6.63076 1.47684 3.9836
head 2.50498 0.792706 1.72713
rclavicle -3.65453e-014 -2.16675e-014
rhumerus -40.5452 20.0344 -79.8034
rradius 52.4011
rwrist 14.2173
rhand -6.82494 -41.9637
rfingers 7.12502
rthumb 19.0392 -71.0519
lclavicle -3.65453e-014 -2.16675e-014
lhumerus -19.6223 -10.056 81.4106
lradius 36.4662
lwrist -9.62055
lhand -26.5238 24.5464
lfingers 7.12502
lthumb 0.03983 54.5262
rfemur 12.5653 -3.06877 13.2142
rtibia 36.8309
rfoot -24.7754 -25.1093
rtoes -29.1741
lfemur -56.2993 33.2952 1.58283
ltibia 71.263
lfoot -7.48413 -4.15872
ltoes 10.4621
